<?xml version="1.0" encoding="UTF-8"?>
<!DOCTYPE svg PUBLIC "-//W3C//DTD SVG 1.1//EN" "http://www.w3.org/Graphics/SVG/1.1/DTD/svg11.dtd">
<svg xmlns="http://www.w3.org/2000/svg" version="1.1" width="160px" height="45px" style="shape-rendering:geometricPrecision; text-rendering:geometricPrecision; image-rendering:optimizeQuality; fill-rule:evenodd; clip-rule:evenodd" xmlns:xlink="http://www.w3.org/1999/xlink">
<g><path style="opacity:0.486" fill="#004c97" d="M 17.5,23.5 C 16.6618,23.8417 16.3284,24.5084 16.5,25.5C 15.8333,25.5 15.5,25.8333 15.5,26.5C 14.5084,26.3284 13.8417,26.6618 13.5,27.5C 12.6236,27.6309 11.9569,27.2975 11.5,26.5C 12.7542,23.0244 13.4209,19.3577 13.5,15.5C 13.4984,11.9825 13.1651,8.64913 12.5,5.5C 12.3691,4.62356 12.7025,3.95689 13.5,3.5C 15.3682,3.94615 17.2015,4.27948 19,4.5C 19.6667,10.5 19.6667,16.5 19,22.5C 18.6667,16.8333 18.3333,11.1667 18,5.5C 17.5005,11.4908 17.3338,17.4908 17.5,23.5 Z"/></g>
<g><path style="opacity:0.004" fill="#004c98" d="M 12.5,5.5 C 11.8333,6.16667 11.8333,6.16667 12.5,5.5 Z"/></g>
<g><path style="opacity:0.016" fill="#264b76" d="M 23.5,6.5 C 27.9811,5.35159 32.6478,5.18492 37.5,6C 32.8452,6.49915 28.1785,6.66582 23.5,6.5 Z"/></g>
<g><path style="opacity:0.621" fill="#264b76" d="M 23.5,9.5 C 28.0557,7.55833 33.0557,6.89166 38.5,7.5C 38.5,9.5 38.5,11.5 38.5,13.5C 37.5,13.5 36.5,13.5 35.5,13.5C 35.33,12.1779 35.6634,11.0113 36.5,10C 32.1794,9.50098 27.8461,9.33432 23.5,9.5 Z"/></g>
<g><path style="opacity:0.012" fill="#264c76" d="M 22.5,9.5 C 21.475,9.10343 21.3083,8.43677 22,7.5C 22.4643,8.09442 22.631,8.76109 22.5,9.5 Z"/></g>
<g><path style="opacity:0.005" fill="#254b77" d="M 39.5,8.5 C 40.5983,9.60093 40.765,10.9343 40,12.5C 39.51,11.2068 39.3433,9.87344 39.5,8.5 Z"/></g>
<g><path style="opacity:0.004" fill="#284c76" d="M 22.5,9.5 C 22.8333,9.5 23.1667,9.5 23.5,9.5C 23.5,9.83333 23.5,10.1667 23.5,10.5C 23.1667,10.1667 22.8333,9.83333 22.5,9.5 Z"/></g>
<g><path style="opacity:0.008" fill="#284b76" d="M 23.5,10.5 C 27.1817,10.3347 30.8484,10.5014 34.5,11C 30.6425,11.8099 26.9758,11.6433 23.5,10.5 Z"/></g>
<g><path style="opacity:0.093" fill="#004b97" d="M 6.5,10.5 C 7.11742,10.6107 7.61742,10.944 8,11.5C 8.49834,14.8168 8.66501,18.1501 8.5,21.5C 7.5,21.5 6.5,21.5 5.5,21.5C 6.35964,17.7903 6.69297,14.1236 6.5,10.5 Z"/></g>
<g><path style="opacity:0.006" fill="#004d97" d="M 22.5,16.5 C 24.6282,15.3709 26.9615,15.2042 29.5,16C 27.1902,16.4966 24.8568,16.6633 22.5,16.5 Z"/></g>
<g><path style="opacity:0.103" fill="#004c97" d="M 36.5,15.5 C 37.7773,16.6936 38.4439,18.3603 38.5,20.5C 38.1667,22.1667 37.8333,23.8333 37.5,25.5C 36.513,22.2317 36.1796,18.8984 36.5,15.5 Z"/></g>
<g><path style="opacity:0.462" fill="#004d97" d="M 32.5,19.5 C 33.8333,21.8333 33.8333,24.1667 32.5,26.5C 31.8333,26.5 31.5,26.8333 31.5,27.5C 30.8333,27.5 30.5,27.8333 30.5,28.5C 29.5084,28.3284 28.8417,28.6618 28.5,29.5C 25.9528,30.8789 25.9528,32.5456 28.5,34.5C 26.3052,35.7691 24.1385,35.7691 22,34.5C 21.5006,28.8431 21.3339,23.1764 21.5,17.5C 25.4872,17.0097 29.1538,17.6764 32.5,19.5 Z M 28.5,26.5 C 28.44,27.0431 28.1067,27.3764 27.5,27.5C 26.52,24.9135 26.1866,22.2469 26.5,19.5C 27.5,19.5 28.5,19.5 29.5,19.5C 29.8016,22.0593 29.4682,24.3926 28.5,26.5 Z"/></g>
<g><path style="opacity:0.004" fill="#004c97" d="M 39.5,17.5 C 40.8333,18.1667 40.8333,18.1667 39.5,17.5 Z"/></g>
<g><path style="opacity:0.008" fill="#004c98" d="M 33.5,19.5 C 32.8333,18.1667 32.8333,18.1667 33.5,19.5 Z"/></g>
<g><path style="opacity:0.01" fill="#004d97" d="M 33.5,19.5 C 34.525,19.8966 34.6917,20.5632 34,21.5C 33.5357,20.9056 33.369,20.2389 33.5,19.5 Z"/></g>
<g><path style="opacity:0.008" fill="#004c97" d="M 11.5,22.5 C 12.525,22.8966 12.6917,23.5632 12,24.5C 11.5357,23.9056 11.369,23.2389 11.5,22.5 Z"/></g>
<g><path style="opacity:0.004" fill="#004e99" d="M 34.5,22.5 C 35.8333,23.1667 35.8333,23.1667 34.5,22.5 Z"/></g>
<g><path style="opacity:0.004" fill="#264c76" d="M 8.5,24.5 C 7.83333,23.1667 7.83333,23.1667 8.5,24.5 Z"/></g>
<g><path style="opacity:0.008" fill="#004c97" d="M 17.5,23.5 C 18.8333,24.1667 18.8333,24.8333 17.5,25.5C 17.5,24.8333 17.5,24.1667 17.5,23.5 Z"/></g>
<g><path style="opacity:0.007" fill="#284b76" d="M 3.5,24.5 C 4.65074,29.6503 4.81741,34.9836 4,40.5C 3.50065,35.1771 3.33398,29.8437 3.5,24.5 Z"/></g>
<g><path style="opacity:0.01" fill="#004d97" d="M 33.5,26.5 C 33.369,25.7611 33.5357,25.0944 34,24.5C 34.6917,25.4368 34.525,26.1034 33.5,26.5 Z"/></g>
<g><path style="opacity:0.653" fill="#264b76" d="M 7.5,24.5 C 7.5,29.1667 7.5,33.8333 7.5,38.5C 8.82207,38.67 9.98873,38.3366 11,37.5C 11.4828,38.448 11.6495,39.448 11.5,40.5C 9.5,40.5 7.5,40.5 5.5,40.5C 4.8872,34.7291 5.55387,29.3958 7.5,24.5 Z"/></g>
<g><path style="opacity:0.008" fill="#004c97" d="M 16.5,25.5 C 16.8333,25.5 17.1667,25.5 17.5,25.5C 17.3147,26.1701 16.9813,26.1701 16.5,25.5 Z"/></g>
<g><path style="opacity:0.008" fill="#004c97" d="M 15.5,26.5 C 15.8333,26.5 16.1667,26.5 16.5,26.5C 16.3147,27.1701 15.9813,27.1701 15.5,26.5 Z"/></g>
<g><path style="opacity:0.008" fill="#004d97" d="M 32.5,26.5 C 32.8333,26.5 33.1667,26.5 33.5,26.5C 33.3147,27.1701 32.9813,27.1701 32.5,26.5 Z"/></g>
<g><path style="opacity:0.008" fill="#004c96" d="M 13.5,27.5 C 14.1667,27.5 14.8333,27.5 15.5,27.5C 14.8333,28.8333 14.1667,28.8333 13.5,27.5 Z"/></g>
<g><path style="opacity:0.004" fill="#004f94" d="M 31.5,27.5 C 31.8333,27.5 32.1667,27.5 32.5,27.5C 32.3147,28.1701 31.9813,28.1701 31.5,27.5 Z"/></g>
<g><path style="opacity:0.004" fill="#274b76" d="M 35.5,28.5 C 34.8333,27.1667 34.8333,27.1667 35.5,28.5 Z"/></g>
<g><path style="opacity:0.004" fill="#254b76" d="M 39.5,27.5 C 40.6453,31.3112 40.8119,35.3112 40,39.5C 39.5012,35.5138 39.3345,31.5138 39.5,27.5 Z"/></g>
<g><path style="opacity:0.016" fill="#264b76" d="M 8.5,24.5 C 9.64697,28.6463 9.81364,32.9796 9,37.5C 8.50098,33.1794 8.33432,28.8461 8.5,24.5 Z"/></g>
<g><path style="opacity:0.008" fill="#004d96" d="M 30.5,28.5 C 30.8333,28.5 31.1667,28.5 31.5,28.5C 31.3147,29.1701 30.9813,29.1701 30.5,28.5 Z"/></g>
<g><path style="opacity:0.516" fill="#254b75" d="M 26.5,37.5 C 29.5,37.5 32.5,37.5 35.5,37.5C 35.5,34.5 35.5,31.5 35.5,28.5C 36.1499,28.1961 36.8165,27.8627 37.5,27.5C 38.4922,31.7828 38.8256,36.1161 38.5,40.5C 34.1161,40.8256 29.7828,40.4922 25.5,39.5C 25.8627,38.8165 26.1961,38.1499 26.5,37.5 Z"/></g>
<g><path style="opacity:0.01" fill="#004d97" d="M 28.5,30.5 C 28.5,30.1667 28.5,29.8333 28.5,29.5C 29.1667,29.5 29.8333,29.5 30.5,29.5C 30.1583,30.3382 29.4916,30.6716 28.5,30.5 Z"/></g>
<g><path style="opacity:0.008" fill="#004f95" d="M 28.5,30.5 C 28.631,31.2389 28.4643,31.9056 28,32.5C 27.3083,31.5632 27.475,30.8966 28.5,30.5 Z"/></g>
<g><path style="opacity:0.004" fill="#264c76" d="M 33.5,35.5 C 34.8333,36.1667 34.8333,36.1667 33.5,35.5 Z"/></g>
<g><path style="opacity:0.008" fill="#184a83" d="M 26.5,37.5 C 25.8333,36.1667 25.8333,36.1667 26.5,37.5 Z"/></g>
<g><path style="opacity:0.084" fill="#014c96" d="M 13.5,37.5 C 17.3751,37.0845 21.0418,37.5845 24.5,39C 21.0418,40.4155 17.3751,40.9155 13.5,40.5C 13.5,39.5 13.5,38.5 13.5,37.5 Z"/></g>
<g><path style="opacity:0.009" fill="#264b76" d="M 5.5,42.5 C 6.94639,41.3871 8.61305,41.2204 10.5,42C 8.86586,42.4935 7.19919,42.6602 5.5,42.5 Z"/></g>
<g><path style="opacity:0.008" fill="#254b75" d="M 25.5,42.5 C 29.3112,41.3547 33.3112,41.1881 37.5,42C 33.5138,42.4988 29.5138,42.6655 25.5,42.5 Z"/></g>
</svg>
